<svg id="visual" viewBox="0 0 900 450" width="900" height="450" xmlns="http://www.w3.org/2000/svg" xmlns:xlink="http://www.w3.org/1999/xlink" version="1.1"><path d="M0 100L21.5 105.3C43 110.7 86 121.3 128.8 117.5C171.7 113.7 214.3 95.3 257.2 91.2C300 87 343 97 385.8 110.5C428.7 124 471.3 141 514.2 149.5C557 158 600 158 642.8 155.5C685.7 153 728.3 148 771.2 142C814 136 857 129 878.5 125.5L900 122L900 0L878.5 0C857 0 814 0 771.2 0C728.3 0 685.7 0 642.8 0C600 0 557 0 514.2 0C471.3 0 428.7 0 385.8 0C343 0 300 0 257.2 0C214.3 0 171.7 0 128.8 0C86 0 43 0 21.5 0L0 0Z" fill="#023047" stroke-linecap="round" stroke-linejoin="miter"></path></svg>